<?xml version="1.0" standalone="no"?>
<!DOCTYPE svg PUBLIC "-//W3C//DTD SVG 20010904//EN"
 "http://www.w3.org/TR/2001/REC-SVG-20010904/DTD/svg10.dtd">
<svg version="1.0" xmlns="http://www.w3.org/2000/svg"
 width="160.000000pt" height="160.000000pt" viewBox="0 0 160.000000 160.000000"
 preserveAspectRatio="xMidYMid meet">

<g transform="translate(0.000000,160.000000) scale(0.100000,-0.100000)"
fill="#000000" stroke="none">
<path d="M0 800 l0 -800 800 0 800 0 0 800 0 800 -800 0 -800 0 0 -800z m400
215 c0 -9 9 -15 25 -15 16 0 25 6 25 15 0 11 12 15 50 15 38 0 50 -4 50 -15 0
-8 5 -15 11 -15 14 0 39 -25 39 -39 0 -6 7 -11 16 -11 15 0 16 -9 10 -61 -3
-34 -6 -118 -6 -185 l0 -124 -31 0 c-54 0 -58 12 -61 187 l-3 158 -25 0 -25 0
-3 -158 c-3 -164 -8 -187 -47 -187 -39 0 -44 23 -47 187 l-3 158 -25 0 -25 0
-3 -158 c-3 -175 -7 -187 -61 -187 l-31 0 0 124 c0 67 -3 151 -6 185 -6 52 -5
61 10 61 9 0 16 5 16 11 0 14 25 39 39 39 6 0 11 7 11 15 0 11 12 15 50 15 38
0 50 -4 50 -15z m426 0 c4 -8 14 -15 24 -15 10 0 20 7 24 15 3 10 19 15 47 15
36 0 47 -6 85 -45 l44 -44 0 -181 0 -180 -35 0 c-19 0 -35 5 -35 10 0 6 -7 10
-15 10 -13 0 -15 25 -15 165 l0 165 -25 0 -25 0 0 -165 c0 -140 -2 -165 -15
-165 -8 0 -15 -4 -15 -10 0 -5 -9 -10 -20 -10 -11 0 -20 5 -20 10 0 6 -7 10
-15 10 -13 0 -15 25 -15 165 l0 165 -25 0 -25 0 0 -165 c0 -140 -2 -165 -15
-165 -8 0 -15 -4 -15 -10 0 -5 -16 -10 -35 -10 l-35 0 0 180 0 181 43 44 c37
39 47 44 85 45 29 0 44 -5 48 -15z m493 -42 l56 -58 -4 -115 c-1 -63 -7 -116
-12 -118 -5 -2 -9 -10 -9 -18 0 -8 -5 -14 -11 -14 -14 0 -39 -25 -39 -39 0 -6
-7 -11 -15 -11 -8 0 -15 -4 -15 -10 0 -15 -159 -13 -174 3 -9 9 -15 70 -19
210 -4 166 -3 197 9 197 8 0 14 7 14 15 0 12 16 15 81 15 l81 0 57 -57z"/>
<path d="M300 989 c0 -14 -25 -39 -39 -39 -7 0 -11 -57 -11 -175 l0 -175 25 0
25 0 0 161 c0 171 5 189 50 189 45 0 50 -18 50 -189 l0 -161 25 0 25 0 0 161
c0 171 5 189 50 189 45 0 50 -18 50 -189 l0 -161 25 0 25 0 0 175 c0 118 -4
175 -11 175 -14 0 -39 25 -39 39 0 6 -21 11 -50 11 -38 0 -50 -4 -50 -15 0 -9
-9 -15 -25 -15 -16 0 -25 6 -25 15 0 11 -12 15 -50 15 -29 0 -50 -5 -50 -11z"/>
<path d="M730 985 c0 -8 -5 -15 -11 -15 -34 0 -39 -27 -39 -199 0 -164 1 -171
20 -171 19 0 20 7 20 165 0 140 2 165 15 165 8 0 15 5 15 10 0 6 11 10 25 10
14 0 25 -4 25 -10 0 -5 7 -10 15 -10 13 0 15 -25 15 -165 0 -158 1 -165 20
-165 19 0 20 7 20 165 0 140 2 165 15 165 8 0 15 5 15 10 0 6 11 10 25 10 14
0 25 -4 25 -10 0 -5 7 -10 15 -10 13 0 15 -25 15 -165 0 -158 1 -165 20 -165
19 0 20 7 20 171 0 172 -5 199 -39 199 -6 0 -11 7 -11 15 0 11 -12 15 -45 15
-33 0 -45 -4 -45 -15 0 -10 -10 -15 -30 -15 -20 0 -30 5 -30 15 0 11 -12 15
-45 15 -33 0 -45 -4 -45 -15z"/>
<path d="M1100 800 l0 -200 80 0 c74 0 81 2 110 30 16 16 30 34 30 40 0 5 7
10 15 10 13 0 15 20 15 120 0 100 -2 120 -15 120 -8 0 -15 5 -15 11 0 14 -25
39 -39 39 -6 0 -11 7 -11 15 0 12 -16 15 -85 15 l-85 0 0 -200z m150 140 c0
-5 7 -10 15 -10 8 0 15 -7 15 -15 0 -8 5 -15 10 -15 6 0 10 -39 10 -96 0 -92
-1 -97 -29 -125 -24 -24 -38 -29 -75 -29 l-46 0 0 150 0 150 50 0 c28 0 50 -4
50 -10z"/>
<path d="M1177 923 c-4 -3 -7 -62 -7 -130 l0 -123 40 0 c29 0 40 4 40 15 0 8
7 15 15 15 12 0 15 18 15 100 0 82 -3 100 -15 100 -8 0 -15 7 -15 15 0 10 -10
15 -33 15 -19 0 -37 -3 -40 -7z"/>
</g>
</svg>
